<svg xmlns="http://www.w3.org/2000/svg" width="905.431" height="269.765" viewBox="0 0 905.431 269.765">
  <g>
    <g>
      <path d="M503.068,197.467a62.585,62.585,0,1,1,62.584-62.584v52.208a9,9,0,0,1-18,0V134.883a44.584,44.584,0,1,0-44.584,44.584,9,9,0,0,1,0,18Z" fill="#fff"/>
      <path d="M644.843,197.467H625.571a43.361,43.361,0,0,1-43.312-43.312V81.3a9,9,0,0,1,18,0v72.857a25.341,25.341,0,0,0,25.312,25.312h19.272a9,9,0,0,1,0,18Z" fill="#fff"/>
      <path d="M705.071,197.467H680.448a9,9,0,0,1,0-18h24.623a44.585,44.585,0,0,0,0-89.169H680.448a9,9,0,0,1,0-18h24.623a62.585,62.585,0,0,1,0,125.169Z" fill="#fff"/>
      <path d="M421.446,197.467H394.682a62.585,62.585,0,0,1,0-125.169h26.764a9,9,0,0,1,0,18H394.682a44.585,44.585,0,0,0,0,89.169h26.764a9,9,0,0,1,0,18Z" fill="#fff"/>
      <path d="M842.846,197.467a62.585,62.585,0,1,1,62.585-62.584A62.655,62.655,0,0,1,842.846,197.467Zm0-107.169a44.585,44.585,0,1,0,44.585,44.585A44.635,44.635,0,0,0,842.846,90.3Z" fill="#fff"/>
    </g>
    <path d="M230.259,39.506A134.883,134.883,0,0,0,39.506,230.259,134.883,134.883,0,0,0,230.259,39.506Zm-95.377,211.76A116.384,116.384,0,1,1,251.266,134.883,116.515,116.515,0,0,1,134.882,251.266ZM99.771,165.8c-8.773,14.229-22.5,19.259-36.4,13.2-15.591-6.8-22.843-24.824-16.138-40.119,6.917-15.778,24.59-21.892,41.974-14.32a111.281,111.281,0,0,1,13.254,7.014c4.708,2.86,9.353,5.825,14.136,8.9a8.033,8.033,0,0,1,1.027,12.741l-.157.142a8.022,8.022,0,0,1-10.157.458c-2.475-1.846-5.285-3.934-7.2-5.326A82.689,82.689,0,0,0,81.92,138.064c-8.033-3.132-14.66-1.943-19.663,6.878-5.425,9.563.582,15.478,4.965,19.246a12.108,12.108,0,0,0,18.529-2.662c.336-.6,1.027-1.781,1.823-3.132a7.069,7.069,0,0,1,9.829-2.411l.122.076A7.085,7.085,0,0,1,99.771,165.8Zm61.825,6.818c4.716,15.63,3.809,27.349-8.214,36.872-12.4,9.817-31.728,7.4-41.736-5.227-10.963-13.827-8.258-32,6.708-43.466a115.8,115.8,0,0,1,13.871-8.954c4.68-2.621,8.779-4.528,13.259-6.673a7.441,7.441,0,0,1,10.444,4.94l.044.18a7.43,7.43,0,0,1-3.746,8.334c-1.36.72-2.837,1.5-4.226,2.213-6.224,3.216-12.362,6.631-18.335,10.288-8.348,5.111-13.181,14.937-7.34,23.13,3.086,4.33,11.28,7.39,16.373,6.061,9.841-2.567,13.447-11.023,9.868-20.332-.23-.6-.549-1.388-.926-2.292a7.349,7.349,0,0,1,3.655-9.463l.152-.071A7.328,7.328,0,0,1,161.6,172.621Zm-45.962-59a5.873,5.873,0,1,1,5.873,5.873A5.873,5.873,0,0,1,115.634,113.62Zm82.525,67.755c-15.906,1.773-31.627-10.725-33.037-28.1-1.254-15.453-.321-31.077-.5-46.624-.244-21.443-11.3-33.782-29.856-33.51-17.707.259-27.989,12.288-28.446,33.369-.039,1.789-.109,3.747-.182,5.826a7.806,7.806,0,0,1-11.322,6.694l-.166-.084a7.8,7.8,0,0,1-4.282-6.927c-.027-6.9.377-19.647,3.433-26.709,8.717-20.144,28.55-30.889,50.057-27.12,20.161,3.534,35.359,20.708,36.322,42.047.678,15.021.572,30.087.453,45.129-.083,10.623,2.4,19.088,14.684,19.78,8.163.46,14.216-5.234,15.248-10.4,1.964-9.835-1.386-16.3-14.338-17.895a7.61,7.61,0,0,1-6.749-7.664c0-.132.005-.265.007-.4a7.542,7.542,0,0,1,8.8-7.34c14.5,2.6,25.876,13.376,26.743,27.395C226.032,165.113,214.069,179.6,198.159,181.375ZM147.9,119.493a5.873,5.873,0,1,1,5.873-5.873A5.872,5.872,0,0,1,147.9,119.493Z" fill="#fff"/>
  </g>
</svg>
