<svg xmlns="http://www.w3.org/2000/svg" width="406.199" height="406.198" viewBox="0 0 406.199 406.198">
  <g>
    <path d="M203.1,406.2A203.1,203.1,0,0,1,59.487,59.486,203.1,203.1,0,1,1,346.712,346.712,201.771,201.771,0,0,1,203.1,406.2Zm0-381.266c-98.242,0-178.167,79.925-178.167,178.167S104.858,381.267,203.1,381.267,381.266,301.341,381.266,203.1,301.342,24.932,203.1,24.932Z" fill="#27aae1"/>
    <path d="M112.078,272.305a42.145,42.145,0,0,1-16.866-3.7,45.271,45.271,0,0,1-24.254-25.134,43.66,43.66,0,0,1,.577-33.674c7.054-16.09,21.889-25.695,39.687-25.695a54.8,54.8,0,0,1,21.94,4.774,167.165,167.165,0,0,1,19.923,10.546c7.285,4.425,14.573,9.086,21.416,13.479a10.622,10.622,0,0,1,1.359,16.846l-.241.217a10.607,10.607,0,0,1-13.425.6c-3.759-2.806-8.028-5.978-10.938-8.093-10.2-7.416-19.339-12.654-27.951-16.012a32.169,32.169,0,0,0-11.688-2.491c-8.318,0-14.887,4.453-20.084,13.615-9.3,16.4,2.3,26.374,7.878,31.167a19.863,19.863,0,0,0,30.508-4.467c.506-.909,1.549-2.682,2.747-4.718a9.156,9.156,0,0,1,12.733-3.124l.184.115a9.211,9.211,0,0,1,2.9,12.632c-9.188,14.9-22.118,23.111-36.4,23.111Z" fill="#27aae1"/>
    <path d="M204.048,323.915a44.814,44.814,0,0,1-34.979-16.509c-7.508-9.472-10.883-20.827-9.5-31.974,1.494-12.043,8.385-23.322,19.405-31.761a173.787,173.787,0,0,1,20.859-13.463c6.237-3.493,11.8-6.15,17.7-8.963l2.334-1.116a9.711,9.711,0,0,1,13.647,6.452l.064.268a9.7,9.7,0,0,1-4.892,10.893c-2.059,1.089-4.3,2.263-6.4,3.351-9.936,5.136-19.33,10.407-27.921,15.667-8.02,4.911-13.75,12.464-15.328,20.2a21.5,21.5,0,0,0,3.732,17.142c4.131,5.793,13.833,10.331,22.089,10.331a17.569,17.569,0,0,0,4.43-.527c7.384-1.926,12.854-5.994,15.815-11.764,3.086-6.007,3.165-13.525.228-21.168-.355-.922-.844-2.132-1.423-3.519a9.56,9.56,0,0,1,4.768-12.336l.227-.106a9.559,9.559,0,0,1,13.232,5.8c7.752,25.688,4.294,41.41-11.936,54.265a42.175,42.175,0,0,1-26.146,8.833Z" fill="#27aae1"/>
    <path d="M182.8,178.178a7.342,7.342,0,1,1,7.343-7.342A7.35,7.35,0,0,1,182.8,178.178Z" fill="#27aae1"/>
    <path d="M222.846,178.178a7.342,7.342,0,1,1,7.344-7.342A7.35,7.35,0,0,1,222.846,178.178Z" fill="#27aae1"/>
    <path d="M294.53,272.331c-22.4,0-42.125-18.6-43.981-41.452-1.258-15.476-1.057-31.368-.862-46.736.1-7.835.2-15.937.11-23.9-.372-32.814-17.556-52.4-45.964-52.4l-.931.006c-27.7.407-44,19.421-44.709,52.169-.059,2.708-.164,5.671-.274,8.818a10.253,10.253,0,0,1-10.28,9.934,10.149,10.149,0,0,1-4.624-1.12l-.25-.127a10.239,10.239,0,0,1-5.639-9.118c-.041-10.422.564-29.464,5.08-39.9,11.034-25.5,34.663-41.337,61.666-41.337a73.113,73.113,0,0,1,12.578,1.108c30.272,5.306,52.4,30.935,53.818,62.327,1.042,23.073.861,46.112.687,68.394-.111,14.08,2.492,30.4,23.761,31.592.5.029,1,.042,1.492.042,12.432,0,21.6-8.688,23.272-17.087,1.664-8.333.8-14.7-2.634-19.456-3.752-5.2-10.447-8.324-20.468-9.561a9.98,9.98,0,0,1-8.865-10.042l.011-.616a9.91,9.91,0,0,1,9.793-9.768,9.651,9.651,0,0,1,1.708.153c21.916,3.928,38.074,20.427,39.292,40.121,1.466,23.728-16.2,45.133-39.376,47.716a40.049,40.049,0,0,1-4.409.244Z" fill="#27aae1"/>
  </g>
</svg>
