<svg xmlns="http://www.w3.org/2000/svg" xmlns:xlink="http://www.w3.org/1999/xlink" version="1.1" width="256" height="256" viewBox="0 0 256 256" xml:space="preserve">

<defs>
</defs>
<g style="stroke: none; stroke-width: 0; stroke-dasharray: none; stroke-linecap: butt; stroke-linejoin: miter; stroke-miterlimit: 10; fill: none; fill-rule: nonzero; opacity: 1;" transform="translate(1.4065934065934016 1.4065934065934016) scale(2.81 2.81)" >
	<path d="M 29.372 58.939 c -2.364 -6.666 -7.834 -12.305 -18.198 -11.694 c 0.436 9.098 3.564 16.094 10.505 24.628 c 0.523 0.642 0.426 1.587 -0.217 2.11 c -0.278 0.226 -0.613 0.336 -0.945 0.336 c -0.436 0 -0.868 -0.189 -1.164 -0.554 C 12.174 64.938 8.744 57.426 8.164 47.952 c -0.052 -2.983 0.201 -6.174 0.729 -9.708 c 0.122 -0.819 -0.443 -1.582 -1.262 -1.705 c -0.812 -0.122 -1.582 0.443 -1.705 1.262 c -0.731 4.895 -0.939 9.209 -0.578 13.241 c -5.106 7.34 -7.132 15.512 -3.512 22.988 c 6.552 11.288 18.348 11.955 29.932 12.723 C 25.414 80.233 32.866 69.557 29.372 58.939 z" style="stroke: none; stroke-width: 1; stroke-dasharray: none; stroke-linecap: butt; stroke-linejoin: miter; stroke-miterlimit: 10; fill: rgb(31,193,80); fill-rule: nonzero; opacity: 1;" transform=" matrix(1 0 0 1 0 0) " stroke-linecap="round" />
	<path d="M 60.557 56.679 c -4.967 5.036 -7.654 12.418 -2.582 21.477 c 7.996 -4.362 12.926 -10.229 17.576 -20.198 c 0.35 -0.751 1.242 -1.075 1.993 -0.725 c 0.324 0.152 0.57 0.405 0.715 0.704 c 0.19 0.392 0.208 0.864 0.01 1.289 C 73.459 69.535 68.197 75.9 59.926 80.556 c -2.661 1.348 -5.643 2.513 -9.053 3.58 c -0.79 0.247 -1.231 1.089 -0.983 1.879 c 0.245 0.784 1.089 1.231 1.879 0.983 c 4.723 -1.478 8.696 -3.173 12.167 -5.258 c 8.832 1.391 17.07 -0.351 22.216 -6.871 c 7.298 -10.82 2.751 -21.726 -1.612 -32.484 C 81.445 50.949 68.587 48.902 60.557 56.679 z" style="stroke: none; stroke-width: 1; stroke-dasharray: none; stroke-linecap: butt; stroke-linejoin: miter; stroke-miterlimit: 10; fill: rgb(31,193,80); fill-rule: nonzero; opacity: 1;" transform=" matrix(1 0 0 1 0 0) " stroke-linecap="round" />
	<path d="M 37.984 33.719 c 6.234 3.342 14.074 3.834 21.331 -3.59 c -6.443 -6.438 -13.464 -9.51 -24.341 -11.155 c -0.819 -0.124 -1.382 -0.887 -1.259 -1.707 c 0.054 -0.354 0.227 -0.661 0.473 -0.884 c 0.323 -0.293 0.77 -0.444 1.234 -0.374 c 11.249 1.701 18.841 4.951 25.644 11.571 c 2.045 2.172 4.004 4.703 5.991 7.673 c 0.46 0.688 1.392 0.873 2.08 0.413 c 0.683 -0.456 0.873 -1.392 0.413 -2.08 c -2.752 -4.113 -5.5 -7.445 -8.48 -10.186 C 59.91 14.534 55.912 7.124 48.204 4.029 C 35.763 0.084 26.586 7.527 17.499 14.751 C 26.587 15.301 28.255 28.213 37.984 33.719 z" style="stroke: none; stroke-width: 1; stroke-dasharray: none; stroke-linecap: butt; stroke-linejoin: miter; stroke-miterlimit: 10; fill: rgb(31,193,80); fill-rule: nonzero; opacity: 1;" transform=" matrix(1 0 0 1 0 0) " stroke-linecap="round" />
</g>
</svg>